<svg width="120" height="247" viewBox="0 0 120 247" fill="none" xmlns="http://www.w3.org/2000/svg">
<path d="M-29.0313 12.2649C-16.2379 -2.99722 7.23784 -2.99722 20.0313 12.2649C27.3852 21.0378 38.8643 25.2158 50.1368 23.2224C69.7475 19.7544 87.7309 34.8443 87.721 54.7593C87.7153 66.2067 93.8232 76.7859 103.74 82.5046C120.992 92.4535 125.068 115.573 112.259 130.822C104.897 139.588 102.776 151.618 106.696 162.373C113.517 181.083 101.779 201.414 82.1649 204.862C70.8903 206.845 61.5325 214.697 57.6226 225.456C50.8206 244.173 28.7607 252.202 11.5188 242.236C1.60786 236.507 -10.6079 236.507 -20.5188 242.236C-37.7607 252.202 -59.8206 244.173 -66.6226 225.456C-70.5325 214.697 -79.8903 206.845 -91.1648 204.862C-110.779 201.414 -122.517 181.083 -115.696 162.373C-111.776 151.618 -113.897 139.588 -121.259 130.822C-134.068 115.573 -129.992 92.4535 -112.74 82.5046C-102.823 76.7859 -96.7153 66.2067 -96.721 54.7593C-96.7309 34.8443 -78.7475 19.7544 -59.1368 23.2224C-47.8643 25.2158 -36.3852 21.0378 -29.0313 12.2649Z" fill="#FFF7DD"/>
</svg>
