<svg width="169" height="374" viewBox="0 0 169 374" fill="none" xmlns="http://www.w3.org/2000/svg">
<path d="M-57.2671 17.4582C-37.8317 -5.72749 -2.16829 -5.72748 17.2671 17.4582C28.4389 30.7857 45.8774 37.1328 63.0023 34.1044C92.7941 28.836 120.114 51.76 120.099 82.0141C120.09 99.4046 129.369 115.476 144.434 124.164C170.642 139.278 176.835 174.399 157.377 197.566C146.192 210.882 142.969 229.158 148.925 245.497C159.287 273.921 141.455 304.806 111.658 310.045C94.5302 313.056 80.3142 324.985 74.3744 341.33C64.0411 369.765 30.5284 381.962 4.33519 366.822C-10.7211 358.119 -29.2789 358.119 -44.3352 366.822C-70.5284 381.962 -104.041 369.765 -114.374 341.33C-120.314 324.985 -134.53 313.056 -151.658 310.045C-181.455 304.806 -199.287 273.921 -188.925 245.497C-182.969 229.158 -186.192 210.882 -197.377 197.566C-216.835 174.399 -210.642 139.278 -184.434 124.164C-169.369 115.476 -160.09 99.4046 -160.099 82.0141C-160.114 51.76 -132.794 28.836 -103.002 34.1044C-85.8774 37.1328 -68.4389 30.7857 -57.2671 17.4582Z" fill="#FFF7DD"/>
</svg>
