<svg width="288" height="570" viewBox="0 0 288 570" fill="none" xmlns="http://www.w3.org/2000/svg">
<path d="M238.953 23.5115C264.532 -7.00316 311.468 -7.00319 337.047 23.5115L347.221 35.6485C361.924 53.1889 384.875 61.5424 407.413 57.5567L423.009 54.7989C462.218 47.8651 498.173 78.0354 498.154 117.853L498.146 133.69C498.134 156.578 510.346 177.73 530.173 189.164L543.893 197.075C578.385 216.967 586.536 263.19 560.927 293.68L550.741 305.807C536.02 323.332 531.779 347.385 539.617 368.889L545.042 383.768C558.679 421.177 535.21 461.826 495.994 468.72L480.396 471.463C457.854 475.426 439.144 491.125 431.327 512.637L425.918 527.521C412.318 564.944 368.212 580.998 333.739 561.072L320.028 553.146C300.212 541.693 275.788 541.693 255.972 553.146L242.261 561.072C207.788 580.998 163.682 564.944 150.082 527.521L144.673 512.637C136.856 491.125 118.146 475.426 95.6037 471.463L80.0059 468.72C40.7899 461.826 17.3215 421.177 30.9585 383.768L36.3825 368.889C44.2213 347.385 39.9802 323.332 25.2594 305.807L15.0735 293.68C-10.5359 263.19 -2.38541 216.967 32.1074 197.075L45.8268 189.164C65.6538 177.73 77.8658 156.578 77.8544 133.69L77.8465 117.853C77.8267 78.0354 113.782 47.8651 152.991 54.7989L168.587 57.5567C191.125 61.5424 214.076 53.1889 228.779 35.6486L238.953 23.5115Z" fill="#FFE4C5" fill-opacity="0.59"/>
</svg>
