<svg width="28" height="28" viewBox="0 0 28 28" fill="none" xmlns="http://www.w3.org/2000/svg">
<g id="ri:shopping-basket-fill">
<path id="Vector" d="M14.006 2.33331C15.8625 2.33331 17.643 3.07081 18.9558 4.38357C20.2685 5.69632 21.006 7.4768 21.006 9.33331V10.5H25.6727V12.8333H24.3112L23.428 23.4301C23.4037 23.7217 23.2708 23.9935 23.0556 24.1916C22.8404 24.3898 22.5586 24.4998 22.266 24.5H5.74602C5.45328 24.5001 5.17118 24.3902 4.95571 24.192C4.74024 23.9938 4.60715 23.7219 4.58286 23.4301L3.69969 12.8333H2.33936V10.5H7.00602V9.33331C7.00602 7.4768 7.74352 5.69632 9.05627 4.38357C10.369 3.07081 12.1495 2.33331 14.006 2.33331ZM15.1727 15.1666H12.8394V19.8333H15.1727V15.1666ZM10.506 15.1666H8.17269V19.8333H10.506V15.1666ZM19.8394 15.1666H17.506V19.8333H19.8394V15.1666ZM14.006 4.66665C12.8087 4.66665 11.6573 5.12682 10.7897 5.95199C9.92223 6.77716 9.40505 7.90419 9.34519 9.09998L9.33936 9.33331V10.5H18.6727V9.33331C18.6727 8.13603 18.2125 6.98455 17.3873 6.11703C16.5622 5.24952 15.4351 4.73234 14.2394 4.67248L14.006 4.66665Z" fill="white"/>
</g>
</svg>
