<svg width="24" height="12" viewBox="0 0 24 12" fill="none" xmlns="http://www.w3.org/2000/svg">
<g clip-path="url(#clip0_132_4450)">
<path d="M12.0001 9.70407L20.7271 1.21207C20.7974 1.14216 20.8809 1.08688 20.9727 1.04945C21.0646 1.01201 21.1629 0.993162 21.2621 0.993986C21.3613 0.99481 21.4593 1.01529 21.5505 1.05425C21.6417 1.0932 21.7242 1.14986 21.7934 1.22093C21.8625 1.292 21.9169 1.37609 21.9534 1.46832C21.9898 1.56054 22.0076 1.65909 22.0057 1.75824C22.0038 1.85739 21.9823 1.95518 21.9424 2.04595C21.9024 2.13673 21.8449 2.21868 21.7731 2.28707L12.5231 11.2871C12.3831 11.4233 12.1954 11.4995 12.0001 11.4995C11.8047 11.4995 11.6171 11.4233 11.4771 11.2871L2.22709 2.28707C2.15528 2.21868 2.09774 2.13673 2.05781 2.04595C2.01788 1.95518 1.99635 1.85739 1.99446 1.75824C1.99257 1.65909 2.01037 1.56054 2.04681 1.46832C2.08326 1.37609 2.13764 1.292 2.20679 1.22093C2.27595 1.14986 2.35852 1.0932 2.44971 1.05425C2.54091 1.01529 2.63893 0.99481 2.73809 0.993986C2.83726 0.993162 2.9356 1.01201 3.02744 1.04945C3.11927 1.08688 3.20276 1.14216 3.27309 1.21207L12.0001 9.70407Z" fill="black"/>
</g>
<defs>
<clipPath id="clip0_132_4450">
<rect width="12" height="24" fill="white" transform="matrix(0 -1 -1 0 24 12)"/>
</clipPath>
</defs>
</svg>
