<svg width="22" height="29" viewBox="0 0 22 29" fill="none" xmlns="http://www.w3.org/2000/svg">
<path d="M12.5794 4C13.7606 4.00315 14.3601 4.00945 14.8777 4.02415L15.0814 4.0315C15.3166 4.0399 15.5487 4.0504 15.829 4.063C16.9461 4.1155 17.7084 4.29189 18.3772 4.55124C19.0702 4.81793 19.654 5.17912 20.2377 5.76186C20.7716 6.28674 21.1847 6.92165 21.4483 7.62242C21.7076 8.29125 21.884 9.05353 21.9365 10.1718C21.9491 10.451 21.9596 10.6831 21.968 10.9193L21.9743 11.123C21.9901 11.6396 21.9964 12.2392 21.9985 13.4204L21.9995 14.2037V15.5791C22.0021 16.345 21.9941 17.1108 21.9754 17.8765L21.9691 18.0802C21.9607 18.3164 21.9502 18.5485 21.9376 18.8278C21.8851 19.946 21.7066 20.7072 21.4483 21.3771C21.1855 22.0782 20.7723 22.7133 20.2377 23.2377C19.7127 23.7714 19.0779 24.1845 18.3772 24.4483C17.7084 24.7076 16.9461 24.884 15.829 24.9365C15.5799 24.9482 15.3307 24.9587 15.0814 24.968L14.8777 24.9743C14.3601 24.989 13.7606 24.9964 12.5794 24.9985L11.7962 24.9995H10.4218C9.65559 25.0022 8.8894 24.9941 8.12344 24.9754L7.91975 24.9691C7.6705 24.9596 7.42131 24.9488 7.17219 24.9365C6.05505 24.884 5.29279 24.7076 4.62292 24.4483C3.92226 24.1851 3.28762 23.7719 2.76347 23.2377C2.22909 22.713 1.8156 22.078 1.55183 21.3771C1.29249 20.7083 1.1161 19.946 1.0636 18.8278C1.0519 18.5786 1.04141 18.3294 1.0321 18.0802L1.02685 17.8765C1.00751 17.1109 0.998756 16.345 1.00061 15.5791V13.4204C0.997675 12.6545 1.00538 11.8887 1.0237 11.123L1.03105 10.9193C1.03945 10.6831 1.04995 10.451 1.06255 10.1718C1.11505 9.05353 1.29144 8.2923 1.55078 7.62242C1.81443 6.92093 2.22875 6.28582 2.76452 5.76186C3.28854 5.22792 3.92276 4.81477 4.62292 4.55124C5.29279 4.29189 6.054 4.1155 7.17219 4.063C7.45148 4.0504 7.68456 4.0399 7.91975 4.0315L8.12344 4.0252C8.88905 4.00654 9.65489 3.99849 10.4207 4.00105L12.5794 4ZM11.5001 9.24988C10.1078 9.24988 8.77246 9.80299 7.78795 10.7875C6.80343 11.7721 6.25034 13.1074 6.25034 14.4998C6.25034 15.8921 6.80343 17.2274 7.78795 18.212C8.77246 19.1965 10.1078 19.7496 11.5001 19.7496C12.8924 19.7496 14.2277 19.1965 15.2122 18.212C16.1967 17.2274 16.7498 15.8921 16.7498 14.4998C16.7498 13.1074 16.1967 11.7721 15.2122 10.7875C14.2277 9.80299 12.8924 9.24988 11.5001 9.24988ZM11.5001 11.3498C11.9137 11.3498 12.3233 11.4312 12.7055 11.5894C13.0877 11.7476 13.435 11.9796 13.7275 12.272C14.02 12.5645 14.2521 12.9117 14.4105 13.2938C14.5688 13.676 14.6504 14.0856 14.6504 14.4992C14.6505 14.9129 14.5691 15.3225 14.4109 15.7047C14.2526 16.0869 14.0207 16.4342 13.7282 16.7267C13.4358 17.0193 13.0886 17.2513 12.7065 17.4097C12.3243 17.5681 11.9148 17.6496 11.5011 17.6497C10.6657 17.6497 9.86455 17.3178 9.27385 16.7271C8.68314 16.1364 8.35128 15.3352 8.35128 14.4998C8.35128 13.6643 8.68314 12.8631 9.27385 12.2724C9.86455 11.6817 10.6657 11.3498 11.5011 11.3498M17.0133 7.67491C16.6653 7.67491 16.3314 7.81319 16.0853 8.05933C15.8392 8.30546 15.7009 8.6393 15.7009 8.98738C15.7009 9.33547 15.8392 9.6693 16.0853 9.91544C16.3314 10.1616 16.6653 10.2999 17.0133 10.2999C17.3614 10.2999 17.6952 10.1616 17.9414 9.91544C18.1875 9.6693 18.3258 9.33547 18.3258 8.98738C18.3258 8.6393 18.1875 8.30546 17.9414 8.05933C17.6952 7.81319 17.3614 7.67491 17.0133 7.67491Z" fill="white"/>
</svg>
