<svg width="33" height="33" viewBox="0 0 33 33" fill="none" xmlns="http://www.w3.org/2000/svg">
<g clip-path="url(#clip0_330_2586)">
<path fill-rule="evenodd" clip-rule="evenodd" d="M16.4998 18.4443L24.2782 26.2226C24.5375 26.4731 24.8848 26.6117 25.2454 26.6086C25.6059 26.6054 25.9508 26.4608 26.2057 26.2059C26.4606 25.951 26.6052 25.6061 26.6084 25.2456C26.6115 24.8851 26.4729 24.5377 26.2224 24.2784L18.4441 16.5L26.2224 8.72165C26.4729 8.46232 26.6115 8.11499 26.6084 7.75447C26.6052 7.39395 26.4606 7.04908 26.2057 6.79415C25.9508 6.53921 25.6059 6.3946 25.2454 6.39147C24.8848 6.38834 24.5375 6.52693 24.2782 6.7774L16.4998 14.5558L8.72144 6.7774C8.46095 6.53312 8.11564 6.39977 7.75857 6.40557C7.40151 6.41137 7.06071 6.55586 6.80828 6.80846C6.55585 7.06107 6.41161 7.40197 6.40606 7.75904C6.40052 8.11611 6.53411 8.46133 6.77857 8.72165L14.5556 16.5L6.77719 24.2784C6.64587 24.4052 6.54112 24.557 6.46905 24.7247C6.39699 24.8925 6.35906 25.0729 6.35747 25.2555C6.35589 25.438 6.39068 25.6191 6.45981 25.7881C6.52895 25.9571 6.63105 26.1106 6.76015 26.2397C6.88925 26.3688 7.04277 26.4709 7.21176 26.54C7.38074 26.6092 7.5618 26.644 7.74437 26.6424C7.92694 26.6408 8.10737 26.6028 8.27512 26.5308C8.44288 26.4587 8.5946 26.354 8.72144 26.2226L16.4998 18.4443Z" fill="black"/>
</g>
<defs>
<clipPath id="clip0_330_2586">
<rect width="33" height="33" fill="white"/>
</clipPath>
</defs>
</svg>
