<svg width="21" height="21" viewBox="0 0 21 21" fill="none" xmlns="http://www.w3.org/2000/svg">
<path fill-rule="evenodd" clip-rule="evenodd" d="M14.4113 21V12.8677H17.1413L17.5497 9.69885H14.4102V7.6755C14.4102 6.7578 14.6653 6.132 15.982 6.132H17.66V3.297C16.8473 3.21053 16.0306 3.16846 15.2134 3.171C12.7942 3.171 11.1384 4.64835 11.1384 7.3605V9.69885H8.4V12.8677H11.1374V21H1.1592C0.5187 21 0 20.4813 0 19.8408V1.1592C0 0.5187 0.5187 0 1.1592 0H19.8408C20.4813 0 21 0.5187 21 1.1592V19.8408C21 20.4813 20.4813 21 19.8408 21H14.4113Z" fill="white"/>
</svg>
