<svg width="116" height="37" viewBox="0 0 116 37" fill="none" xmlns="http://www.w3.org/2000/svg">
<g clip-path="url(#clip0_100_162)">
<path d="M112.482 22.964L115.81 25.0119C114.73 26.4804 112.146 29 107.679 29C102.131 29 98 25.0389 98 19.9999C98 14.6378 102.175 11 107.212 11C112.277 11 114.759 14.7184 115.562 16.7259L116 17.75L102.949 22.7349C103.942 24.5404 105.489 25.4565 107.679 25.4565C109.869 25.4565 111.387 24.4595 112.482 22.964ZM102.248 19.7172L110.963 16.3758C110.482 15.2576 109.051 14.4628 107.343 14.4628C105.168 14.4628 102.146 16.2412 102.248 19.7172Z" fill="#FF302F"/>
<path d="M92 1H96V28H92V1Z" fill="#20B15A"/>
<path d="M86.0907 10.7386H90V27.2984C90 34.1703 85.9079 37 81.0703 37C76.5143 37 73.7723 33.9613 72.7456 31.4942L76.3314 30.0164C76.9782 31.5358 78.5391 33.3341 81.0703 33.3341C84.178 33.3341 86.0907 31.4243 86.0907 27.856V26.518H85.9501C85.0218 27.633 83.25 28.6365 81.0001 28.6365C76.3032 28.6365 72 24.5802 72 19.3532C72 14.0979 76.3032 10 81.0001 10C83.236 10 85.0218 10.9897 85.9501 12.0769H86.0907V10.7386ZM86.3717 19.3532C86.3717 16.0634 84.164 13.6659 81.3516 13.6659C78.5109 13.6659 76.1204 16.0634 76.1204 19.3532C76.1204 22.6008 78.5109 24.9566 81.3516 24.9566C84.1643 24.9707 86.372 22.6008 86.372 19.3532" fill="#3686F7"/>
<path d="M49 20.0067C49 25.1901 44.9582 29 40 29C35.042 29 31 25.1767 31 20.0067C31 14.7965 35.042 11 40 11C44.9582 11 49 14.7965 49 20.0067ZM45.0659 20.0067C45.0659 16.7757 42.7214 14.5541 40 14.5541C37.2786 14.5541 34.9341 16.7757 34.9341 20.0067C34.9341 23.2109 37.2786 25.4593 40 25.4593C42.7216 25.4593 45.0659 23.2109 45.0659 20.0067Z" fill="#FF302F"/>
<path d="M70 20C70 25.1872 65.7334 29 60.5 29C55.2664 29 51 25.187 51 20C51 14.786 55.2664 11 60.5 11C65.7334 11 70 14.7725 70 20ZM65.8329 20C65.8329 16.7666 63.3585 14.5433 60.4856 14.5433C57.613 14.5433 55.1383 16.7666 55.1383 20C55.1383 23.2065 57.613 25.4567 60.4856 25.4567C63.3726 25.4567 65.8329 23.1931 65.8329 20Z" fill="#FFBA40"/>
<path d="M15.1 25.0341C9.11423 25.0341 4.42869 20.3306 4.42869 14.5C4.42869 8.66957 9.11423 3.9661 15.1 3.9661C18.3287 3.9661 20.6857 5.20451 22.4285 6.79096L25.3001 3.99402C22.8716 1.72583 19.6287 0 15.1 0C6.90011 0.000223379 0 6.51285 0 14.5C0 22.4876 6.90011 29 15.1 29C19.5287 29 22.8716 27.5806 25.4858 24.9367C28.1715 22.3205 29 18.6468 29 15.6689C29 14.7366 28.8858 13.7765 28.7571 13.0668H15.1V16.9353H24.8286C24.5429 19.3567 23.7572 21.0126 22.6 22.1396C21.2 23.5174 18.9859 25.0341 15.1 25.0341Z" fill="#3686F7"/>
</g>
<defs>
<clipPath id="clip0_100_162">
<rect width="116" height="37" fill="white"/>
</clipPath>
</defs>
</svg>
