<svg width="85" height="85" viewBox="0 0 85 85" fill="none" xmlns="http://www.w3.org/2000/svg">
<path d="M33.646 55.1934V29.8067C33.6465 29.4891 33.7325 29.1774 33.8948 28.9044C34.0572 28.6314 34.29 28.4071 34.5689 28.255C34.8477 28.1029 35.1623 28.0286 35.4798 28.0399C35.7972 28.0512 36.1057 28.1477 36.3731 28.3192L56.1214 41.009C56.3715 41.1692 56.5772 41.3897 56.7197 41.6503C56.8622 41.9108 56.9369 42.2031 56.9369 42.5C56.9369 42.797 56.8622 43.0892 56.7197 43.3498C56.5772 43.6103 56.3715 43.8309 56.1214 43.9911L36.3731 56.6844C36.1057 56.8559 35.7972 56.9524 35.4798 56.9637C35.1623 56.975 34.8477 56.9007 34.5689 56.7486C34.29 56.5965 34.0572 56.3722 33.8948 56.0992C33.7325 55.8262 33.6465 55.5145 33.646 55.1969V55.1934Z" fill="white"/>
<path d="M3.5415 42.5001C3.5415 20.9845 20.9842 3.54175 42.4998 3.54175C64.0155 3.54175 81.4582 20.9845 81.4582 42.5001C81.4582 64.0157 64.0155 81.4584 42.4998 81.4584C20.9842 81.4584 3.5415 64.0157 3.5415 42.5001ZM42.4998 8.85425C33.5764 8.85425 25.0185 12.3991 18.7086 18.7089C12.3988 25.0187 8.854 33.5767 8.854 42.5001C8.854 51.4235 12.3988 59.9815 18.7086 66.2913C25.0185 72.6011 33.5764 76.1459 42.4998 76.1459C51.4233 76.1459 59.9812 72.6011 66.291 66.2913C72.6009 59.9815 76.1457 51.4235 76.1457 42.5001C76.1457 33.5767 72.6009 25.0187 66.291 18.7089C59.9812 12.3991 51.4233 8.85425 42.4998 8.85425Z" fill="white"/>
</svg>
