<svg width="48" height="48" viewBox="0 0 48 48" fill="none" xmlns="http://www.w3.org/2000/svg">
<rect x="0.5" y="0.5" width="47" height="47" rx="23.5" fill="white"/>
<rect x="0.5" y="0.5" width="47" height="47" rx="23.5" stroke="#F56938"/>
<path fill-rule="evenodd" clip-rule="evenodd" d="M28.9497 20.4644C29.3403 20.0739 29.3403 19.4407 28.9497 19.0502C28.5592 18.6597 27.9261 18.6597 27.5355 19.0502L24.7071 21.8786C24.3166 22.2692 23.6834 22.2692 23.2929 21.8786L20.4645 19.0502C20.0739 18.6597 19.4408 18.6597 19.0503 19.0502C18.6597 19.4407 18.6597 20.0739 19.0503 20.4644L21.8787 23.2929C22.2692 23.6834 22.2692 24.3165 21.8787 24.7071L19.0503 27.5355C18.6597 27.926 18.6597 28.5592 19.0503 28.9497C19.4408 29.3402 20.0739 29.3402 20.4645 28.9497L23.2929 26.1213C23.6834 25.7308 24.3166 25.7308 24.7071 26.1213L27.5355 28.9497C27.9261 29.3402 28.5592 29.3402 28.9497 28.9497C29.3403 28.5592 29.3403 27.926 28.9497 27.5355L26.1213 24.7071C25.7308 24.3165 25.7308 23.6834 26.1213 23.2929L28.9497 20.4644Z" fill="#F56938"/>
</svg>
