<svg width="279" height="457" viewBox="0 0 279 457" fill="none" xmlns="http://www.w3.org/2000/svg">
<path d="M185.942 21.3491C209.701 -6.99484 253.299 -6.99484 277.058 21.3491C290.715 37.6417 312.034 45.4008 332.968 41.6987C369.388 35.2582 402.786 63.2823 402.768 100.267C402.757 121.527 414.1 141.174 432.517 151.794C464.556 170.271 472.127 213.206 448.339 241.526C434.665 257.805 430.726 280.147 438.007 300.121C450.674 334.869 428.875 372.626 392.449 379.03C371.511 382.711 354.132 397.294 346.871 417.275C334.238 452.036 293.27 466.947 261.249 448.438C242.843 437.799 220.157 437.799 201.751 448.438C169.73 466.947 128.762 452.036 116.129 417.275C108.868 397.294 91.4894 382.711 70.551 379.03C34.1248 372.626 12.3259 334.869 24.9928 300.121C32.274 280.147 28.3345 257.805 14.661 241.526C-9.12651 213.206 -1.55584 170.271 30.4832 151.794C48.8998 141.174 60.243 121.527 60.2324 100.267C60.214 63.2823 93.6118 35.2582 130.032 41.6987C150.966 45.4008 172.285 37.6417 185.942 21.3491Z" fill="#FFE4C5" fill-opacity="0.59"/>
</svg>
