<svg width="94" height="182" viewBox="0 0 94 182" fill="none" xmlns="http://www.w3.org/2000/svg">
<path d="M74.3003 8.60955C83.8077 -2.67909 101.192 -2.6791 110.7 8.60955C116.164 15.0978 124.729 18.1758 133.083 16.7054C147.56 14.1572 160.95 25.2779 160.943 39.9777C160.939 48.449 165.486 56.2854 172.833 60.5025C185.596 67.8283 188.645 84.946 179.154 96.1925C173.693 102.664 172.12 111.565 175.032 119.516C180.086 133.316 171.319 148.347 156.842 150.88C148.492 152.342 141.504 158.157 138.596 166.12C133.546 179.952 117.177 185.849 104.414 178.506C97.0591 174.275 87.9409 174.275 80.5863 178.506C67.8233 185.849 51.4539 179.952 46.4039 166.12C43.4963 158.157 36.5081 152.342 28.1576 150.88C13.681 148.347 4.91374 133.316 9.96807 119.516C12.8801 111.565 11.3068 102.664 5.84581 96.1925C-3.64523 84.946 -0.595815 67.8283 12.1673 60.5025C19.5144 56.2854 24.0615 48.449 24.0572 39.9777C24.0499 25.2779 37.4396 14.1572 51.9168 16.7054C60.2712 18.1758 68.8359 15.0978 74.3003 8.60955Z" fill="#FFE4C5" fill-opacity="0.59"/>
</svg>
