<svg width="176" height="374" viewBox="0 0 176 374" fill="none" xmlns="http://www.w3.org/2000/svg">
<path d="M-50.2671 17.4582C-30.8317 -5.72749 4.83171 -5.72748 24.2671 17.4582C35.4389 30.7857 52.8774 37.1328 70.0023 34.1044C99.7941 28.836 127.114 51.76 127.099 82.0141C127.09 99.4046 136.369 115.476 151.434 124.164C177.642 139.278 183.835 174.399 164.377 197.566C153.192 210.882 149.969 229.158 155.925 245.497C166.287 273.921 148.455 304.806 118.658 310.045C101.53 313.056 87.3142 324.985 81.3744 341.33C71.0411 369.765 37.5284 381.962 11.3352 366.822C-3.72115 358.119 -22.2789 358.119 -37.3352 366.822C-63.5284 381.962 -97.0411 369.765 -107.374 341.33C-113.314 324.985 -127.53 313.056 -144.658 310.045C-174.455 304.806 -192.287 273.921 -181.925 245.497C-175.969 229.158 -179.192 210.882 -190.377 197.566C-209.835 174.399 -203.642 139.278 -177.434 124.164C-162.369 115.476 -153.09 99.4046 -153.099 82.0141C-153.114 51.76 -125.794 28.836 -96.0023 34.1044C-78.8774 37.1328 -61.4389 30.7857 -50.2671 17.4582Z" fill="#FFF7DD"/>
</svg>
