<svg width="188" height="398" viewBox="0 0 188 398" fill="none" xmlns="http://www.w3.org/2000/svg">
<path d="M-52.0749 19.2113C-31.436 -5.41016 6.43596 -5.41016 27.0749 19.2113C38.9386 33.3641 57.457 40.1043 75.6423 36.8884C107.279 31.2937 136.291 55.6373 136.275 87.7649C136.265 106.232 146.119 123.299 162.117 132.525C189.948 148.575 196.525 185.871 175.861 210.472C163.983 224.613 160.561 244.021 166.886 261.371C177.889 291.556 158.954 324.354 127.311 329.917C109.123 333.115 94.0263 345.782 87.7187 363.139C76.7455 393.335 41.1575 406.288 13.3422 390.21C-2.64656 380.968 -22.3535 380.968 -38.3422 390.21C-66.1575 406.288 -101.745 393.335 -112.719 363.139C-119.026 345.782 -134.123 333.115 -152.311 329.917C-183.954 324.354 -202.889 291.556 -191.886 261.371C-185.561 244.021 -188.983 224.613 -200.861 210.472C-221.525 185.871 -214.948 148.575 -187.117 132.525C-171.119 123.299 -161.265 106.232 -161.275 87.7649C-161.291 55.6373 -132.279 31.2937 -100.642 36.8884C-82.457 40.1043 -63.9386 33.3641 -52.0749 19.2113Z" fill="#FFF7DD"/>
</svg>
