<svg width="14" height="12" viewBox="0 0 14 12" fill="none" xmlns="http://www.w3.org/2000/svg">
<path d="M6.27292 0.539523C6.32522 0.591764 6.36671 0.653803 6.39502 0.722089C6.42333 0.790376 6.4379 0.86357 6.4379 0.937492C6.4379 1.01141 6.42333 1.08461 6.39502 1.1529C6.36671 1.22118 6.32522 1.28322 6.27292 1.33546L2.17019 5.43749L13.1875 5.43749C13.3366 5.43749 13.4797 5.49676 13.5852 5.60224C13.6907 5.70773 13.75 5.85081 13.75 5.99999C13.75 6.14918 13.6907 6.29225 13.5852 6.39774C13.4797 6.50323 13.3366 6.56249 13.1875 6.56249L2.17019 6.56249L6.27292 10.6645C6.37847 10.7701 6.43777 10.9132 6.43777 11.0625C6.43777 11.2118 6.37847 11.3549 6.27292 11.4605C6.16738 11.566 6.02422 11.6253 5.87495 11.6253C5.72569 11.6253 5.58253 11.566 5.47699 11.4605L0.414485 6.39796C0.362186 6.34572 0.320697 6.28368 0.292389 6.2154C0.264082 6.14711 0.249512 6.07391 0.249512 5.99999C0.249512 5.92607 0.264082 5.85287 0.292389 5.78459C0.320697 5.7163 0.362186 5.65426 0.414485 5.60202L5.47699 0.539523C5.52923 0.487224 5.59126 0.445734 5.65955 0.417427C5.72784 0.389119 5.80103 0.37455 5.87495 0.37455C5.94888 0.37455 6.02207 0.389119 6.09036 0.417427C6.15864 0.445734 6.22068 0.487224 6.27292 0.539523Z" fill="#6174BC"/>
</svg>
