<svg width="11" height="20" viewBox="0 0 11 20" fill="none" xmlns="http://www.w3.org/2000/svg">
<path d="M8.70456 10L0.212561 1.27303C0.142645 1.2027 0.0873709 1.1192 0.0499363 1.02737C0.0125017 0.935541 -0.00634956 0.837197 -0.00552559 0.738032C-0.00470161 0.638867 0.0157804 0.54085 0.0547352 0.449653C0.0936899 0.358456 0.150344 0.275889 0.221418 0.206732C0.292493 0.137574 0.376577 0.0831989 0.468805 0.0467521C0.561033 0.0103053 0.659575 -0.00748911 0.758726 -0.0056014C0.857877 -0.00371369 0.955668 0.0178187 1.04644 0.0577496C1.13722 0.0976806 1.21917 0.155217 1.28756 0.22703L10.2876 9.47703C10.4238 9.61704 10.5 9.80468 10.5 10C10.5 10.1954 10.4238 10.383 10.2876 10.523L1.28756 19.773C1.21917 19.8448 1.13722 19.9024 1.04644 19.9423C0.955668 19.9822 0.857877 20.0038 0.758726 20.0057C0.659575 20.0075 0.561033 19.9898 0.468805 19.9533C0.376577 19.9169 0.292493 19.8625 0.221418 19.7933C0.150344 19.7242 0.0936899 19.6416 0.0547352 19.5504C0.0157804 19.4592 -0.00470161 19.3612 -0.00552559 19.262C-0.00634956 19.1629 0.0125017 19.0645 0.0499363 18.9727C0.0873709 18.8809 0.142645 18.7974 0.212561 18.727L8.70456 10Z" fill="black"/>
</svg>
