<svg width="21" height="11" viewBox="0 0 21 11" fill="none" xmlns="http://www.w3.org/2000/svg">
<path d="M10.9942 8.95725L19.7212 0.465246C19.7916 0.39533 19.8751 0.340056 19.9669 0.302622C20.0587 0.265187 20.1571 0.246336 20.2562 0.24716C20.3554 0.247984 20.4534 0.268466 20.5446 0.307421C20.6358 0.346375 20.7184 0.403029 20.7875 0.474104C20.8567 0.545178 20.9111 0.629263 20.9475 0.721491C20.984 0.813719 21.0018 0.912261 20.9999 1.01141C20.998 1.11056 20.9764 1.20835 20.9365 1.29913C20.8966 1.3899 20.839 1.47185 20.7672 1.54025L11.5172 10.5402C11.3772 10.6765 11.1896 10.7527 10.9942 10.7527C10.7989 10.7527 10.6112 10.6765 10.4712 10.5402L1.22123 1.54025C1.14942 1.47185 1.09188 1.3899 1.05195 1.29913C1.01202 1.20835 0.99049 1.11056 0.988602 1.01141C0.986713 0.912261 1.00451 0.813719 1.04095 0.721491C1.0774 0.629263 1.13178 0.545178 1.20093 0.474104C1.27009 0.403029 1.35266 0.346375 1.44386 0.307421C1.53505 0.268466 1.63307 0.247984 1.73223 0.24716C1.8314 0.246336 1.92974 0.265187 2.02158 0.302622C2.11341 0.340056 2.1969 0.39533 2.26723 0.465246L10.9942 8.95725Z" fill="black" fill-opacity="0.7"/>
</svg>
