<svg width="20" height="22" viewBox="0 0 20 22" fill="none" xmlns="http://www.w3.org/2000/svg">
<g clip-path="url(#clip0_100_226)">
<path d="M18.3335 3.6665H3.66683C2.6585 3.6665 1.84266 4.4915 1.84266 5.49984L1.8335 16.4998C1.8335 17.5082 2.6585 18.3332 3.66683 18.3332H18.3335C19.3418 18.3332 20.1668 17.5082 20.1668 16.4998V5.49984C20.1668 4.4915 19.3418 3.6665 18.3335 3.6665ZM17.9668 7.56234L11.486 11.614C11.1927 11.7973 10.8077 11.7973 10.5143 11.614L4.0335 7.56234C3.94158 7.51074 3.86109 7.44103 3.79689 7.35742C3.7327 7.27381 3.68614 7.17805 3.66002 7.07593C3.63391 6.9738 3.62879 6.86744 3.64497 6.76329C3.66116 6.65913 3.6983 6.55933 3.75417 6.46995C3.81004 6.38056 3.88346 6.30344 3.97 6.24325C4.05653 6.18306 4.15438 6.14106 4.25762 6.11978C4.36086 6.0985 4.46734 6.09839 4.57062 6.11946C4.6739 6.14052 4.77184 6.18233 4.8585 6.24234L11.0002 10.0832L17.1418 6.24234C17.2285 6.18233 17.3264 6.14052 17.4297 6.11946C17.533 6.09839 17.6395 6.0985 17.7427 6.11978C17.8459 6.14106 17.9438 6.18306 18.0303 6.24325C18.1169 6.30344 18.1903 6.38056 18.2462 6.46995C18.302 6.55933 18.3392 6.65913 18.3554 6.76329C18.3715 6.86744 18.3664 6.9738 18.3403 7.07593C18.3142 7.17805 18.2676 7.27381 18.2034 7.35742C18.1392 7.44103 18.0587 7.51074 17.9668 7.56234Z" fill="white"/>
</g>
<defs>
<clipPath id="clip0_100_226">
<rect width="20" height="22" fill="white"/>
</clipPath>
</defs>
</svg>
