<svg width="12" height="24" viewBox="0 0 12 24" fill="none" xmlns="http://www.w3.org/2000/svg">
<path d="M9.70407 12L1.21207 3.27303C1.14216 3.2027 1.08688 3.1192 1.04945 3.02737C1.01201 2.93554 0.993162 2.8372 0.993986 2.73803C0.99481 2.63887 1.01529 2.54085 1.05425 2.44965C1.0932 2.35846 1.14986 2.27589 1.22093 2.20673C1.292 2.13757 1.37609 2.0832 1.46832 2.04675C1.56054 2.01031 1.65909 1.99251 1.75824 1.9944C1.85739 1.99629 1.95518 2.01782 2.04595 2.05775C2.13673 2.09768 2.21868 2.15522 2.28707 2.22703L11.2871 11.477C11.4233 11.617 11.4995 11.8047 11.4995 12C11.4995 12.1954 11.4233 12.383 11.2871 12.523L2.28707 21.773C2.21868 21.8448 2.13673 21.9024 2.04595 21.9423C1.95518 21.9822 1.85739 22.0038 1.75824 22.0057C1.65909 22.0075 1.56054 21.9898 1.46832 21.9533C1.37609 21.9169 1.292 21.8625 1.22093 21.7933C1.14986 21.7242 1.0932 21.6416 1.05425 21.5504C1.01529 21.4592 0.99481 21.3612 0.993986 21.262C0.993162 21.1629 1.01201 21.0645 1.04945 20.9727C1.08688 20.8809 1.14216 20.7974 1.21207 20.727L9.70407 12Z" fill="black"/>
</svg>
