<svg width="25" height="25" viewBox="0 0 25 25" fill="none" xmlns="http://www.w3.org/2000/svg">
<path d="M18.7979 13.498H13.7979V18.498C13.7979 18.7632 13.6925 19.0176 13.505 19.2051C13.3174 19.3926 13.0631 19.498 12.7979 19.498C12.5326 19.498 12.2783 19.3926 12.0907 19.2051C11.9032 19.0176 11.7979 18.7632 11.7979 18.498V13.498H6.79785C6.53264 13.498 6.27828 13.3926 6.09074 13.2051C5.90321 13.0176 5.79785 12.7632 5.79785 12.498C5.79785 12.2328 5.90321 11.9784 6.09074 11.7909C6.27828 11.6033 6.53264 11.498 6.79785 11.498H11.7979V6.49799C11.7979 6.23277 11.9032 5.97842 12.0907 5.79088C12.2783 5.60334 12.5326 5.49799 12.7979 5.49799C13.0631 5.49799 13.3174 5.60334 13.505 5.79088C13.6925 5.97842 13.7979 6.23277 13.7979 6.49799V11.498H18.7979C19.0631 11.498 19.3174 11.6033 19.505 11.7909C19.6925 11.9784 19.7979 12.2328 19.7979 12.498C19.7979 12.7632 19.6925 13.0176 19.505 13.2051C19.3174 13.3926 19.0631 13.498 18.7979 13.498Z" fill="#E3A23A"/>
</svg>
