<svg width="16" height="24" viewBox="0 0 16 24" fill="none" xmlns="http://www.w3.org/2000/svg">
<path d="M8.5 11.5C7.7896 11.5 7.10829 11.2366 6.60596 10.7678C6.10363 10.2989 5.82143 9.66304 5.82143 9C5.82143 8.33696 6.10363 7.70107 6.60596 7.23223C7.10829 6.76339 7.7896 6.5 8.5 6.5C9.2104 6.5 9.89171 6.76339 10.394 7.23223C10.8964 7.70107 11.1786 8.33696 11.1786 9C11.1786 9.3283 11.1093 9.65339 10.9747 9.95671C10.8401 10.26 10.6428 10.5356 10.394 10.7678C10.1453 10.9999 9.85002 11.1841 9.52505 11.3097C9.20007 11.4353 8.85175 11.5 8.5 11.5ZM8.5 2C6.51088 2 4.60322 2.7375 3.1967 4.05025C1.79018 5.36301 1 7.14348 1 9C1 14.25 8.5 22 8.5 22C8.5 22 16 14.25 16 9C16 7.14348 15.2098 5.36301 13.8033 4.05025C12.3968 2.7375 10.4891 2 8.5 2Z" fill="white"/>
</svg>
