<svg width="65" height="65" viewBox="0 0 65 65" fill="none" xmlns="http://www.w3.org/2000/svg">
<path d="M32.4996 10.4C44.7196 10.4 54.5996 20.28 54.5996 32.5C54.5996 44.72 44.7196 54.6 32.4996 54.6C20.2796 54.6 10.3996 44.72 10.3996 32.5C10.3996 20.28 20.2796 10.4 32.4996 10.4ZM32.4996 52C43.2896 52 51.9996 43.29 51.9996 32.5C51.9996 21.71 43.2896 13 32.4996 13C21.7096 13 12.9996 21.71 12.9996 32.5C12.9996 43.29 21.7096 52 32.4996 52Z" fill="#6174BC"/>
<path d="M31.7932 20.9871C32.1838 20.5965 32.8169 20.5965 33.2075 20.9871L44.4032 32.1829C44.7938 32.5734 44.7938 33.2065 44.4032 33.5971L43.9975 34.0029C43.6069 34.3934 42.9738 34.3934 42.5832 34.0029L33.2075 24.6271C32.8169 24.2365 32.1838 24.2365 31.7932 24.6271L22.4175 34.0029C22.0269 34.3934 21.3938 34.3934 21.0032 34.0029L20.5975 33.5971C20.2069 33.2065 20.2069 32.5734 20.5975 32.1829L31.7932 20.9871Z" fill="#6174BC"/>
<path d="M33.7998 43.2C33.7998 43.7523 33.3521 44.2 32.7998 44.2H32.1998C31.6475 44.2 31.1998 43.7523 31.1998 43.2L31.1998 23.1C31.1998 22.5477 31.6475 22.1 32.1998 22.1H32.7998C33.3521 22.1 33.7998 22.5477 33.7998 23.1L33.7998 43.2Z" fill="#6174BC"/>
</svg>
