<svg width="165" height="56" viewBox="0 0 165 56" fill="none" xmlns="http://www.w3.org/2000/svg">
<path d="M133.45 40.1174H137.913V32.698L144.14 40.1174H149.601L142.351 31.5667L148.544 24.1524H143.575L137.913 30.986V15.8999L133.45 16.501V40.1174ZM123.159 23.7435C118.204 23.7435 114.764 27.1677 114.764 32.1324C114.764 37.0971 118.204 40.5214 123.159 40.5214C128.113 40.5214 131.553 37.0971 131.553 32.1324C131.553 27.1677 128.113 23.7435 123.159 23.7435ZM123.159 36.6123C120.863 36.6123 119.291 34.789 119.291 32.1324C119.291 29.4759 120.863 27.6526 123.159 27.6526C125.454 27.6526 127.027 29.4759 127.027 32.1324C127.027 34.789 125.454 36.6123 123.159 36.6123ZM105.023 23.7435C100.069 23.7435 96.6282 27.1677 96.6282 32.1324C96.6282 37.0971 100.069 40.5214 105.023 40.5214C109.977 40.5214 113.417 37.0971 113.417 32.1324C113.417 27.1677 109.977 23.7435 105.023 23.7435ZM105.023 36.6123C102.728 36.6123 101.155 34.789 101.155 32.1324C101.155 29.4759 102.728 27.6526 105.023 27.6526C107.318 27.6526 108.891 29.4759 108.891 32.1324C108.891 34.789 107.318 36.6123 105.023 36.6123ZM87.9436 23.7435C85.8794 23.7435 84.169 24.5768 83.0976 26.102V15.8999L78.63 16.4958V40.1123H82.5914L82.6699 37.6477C83.7267 39.486 85.6189 40.5214 87.9436 40.5214C92.1803 40.5214 95.2815 36.9859 95.2815 32.1324C95.2815 27.2788 92.195 23.7435 87.9436 23.7435ZM86.887 36.6123C84.5916 36.6123 83.019 34.789 83.019 32.1324C83.019 29.4759 84.5916 27.6526 86.887 27.6526C89.1821 27.6526 90.7549 29.4759 90.7549 32.1324C90.7549 34.789 89.1821 36.6123 86.887 36.6123ZM69.6849 36.8193C67.316 36.8193 65.6154 35.688 65.0355 33.7385H76.03C76.1382 33.1426 76.2119 32.4355 76.2119 31.9607C76.2119 26.8243 73.4152 23.7435 68.7167 23.7435C63.9739 23.7435 60.6907 27.1677 60.6907 32.1324C60.6907 37.1628 64.1312 40.5214 69.2377 40.5214C71.8818 40.5214 74.4523 39.6123 76.0595 38.1022L74.4523 35.1931C72.8944 36.2991 71.3658 36.8193 69.6849 36.8193ZM68.6872 27.3091C70.7515 27.3091 72.0686 28.597 72.0686 30.592V30.6072H64.9421C65.3697 28.491 66.7016 27.3091 68.6872 27.3091ZM53.7018 40.5264C56.0118 40.5264 58.2726 39.6173 59.865 38.0415L58.1202 35.0264C56.8816 36.0163 55.4761 36.5516 54.1441 36.5516C51.667 36.5516 50.0157 34.7738 50.0157 32.1374C50.0157 29.5011 51.667 27.7232 54.1441 27.7232C55.3679 27.7232 56.6998 28.1777 57.7811 28.9809L59.5554 25.8999C58.1202 24.5667 55.8988 23.7485 53.6968 23.7485C48.8508 23.7485 45.4252 27.2233 45.4252 32.1374C45.43 37.0365 48.8557 40.5264 53.7018 40.5264ZM39.5126 24.1524L39.434 26.6374C38.3773 24.7838 36.4851 23.7485 34.1604 23.7485C29.909 23.7485 26.8224 27.2839 26.8224 32.1374C26.8224 36.9911 29.9287 40.5264 34.1604 40.5264C36.4851 40.5264 38.3821 39.491 39.434 37.6526L39.5126 40.1173H43.4739V24.1524H39.5126ZM35.217 36.6123C32.9218 36.6123 31.349 34.789 31.349 32.1324C31.349 29.4759 32.9218 27.6526 35.217 27.6526C37.5123 27.6526 39.0849 29.4759 39.0849 32.1324C39.0849 34.789 37.5073 36.6123 35.217 36.6123ZM26.4882 24.1825H22.4728V22.8187C22.4728 20.7783 23.2493 19.9955 25.2645 19.9955C25.8886 19.9955 26.3948 20.0106 26.6848 20.0409V16.5409C26.1343 16.3843 24.7926 16.2278 24.0161 16.2278C19.9121 16.2278 18.0199 18.2177 18.0199 22.5157V24.1773H15.4839V28.036H18.0199V40.112H22.4776V28.041H25.8002L26.4882 24.1825Z" fill="#0866FF"/>
</svg>
