<svg width="34" height="33" viewBox="0 0 34 33" fill="none" xmlns="http://www.w3.org/2000/svg">
<path d="M32.8087 14.9782L26.1142 20.8207L28.1196 29.5192C28.2257 29.9739 28.1954 30.4498 28.0325 30.8874C27.8696 31.325 27.5814 31.7049 27.2037 31.9796C26.8261 32.2543 26.3759 32.4115 25.9094 32.4317C25.4429 32.4519 24.9808 32.3341 24.5808 32.0931L16.9942 27.4915L9.42388 32.0931C9.02395 32.3341 8.56184 32.4519 8.09533 32.4317C7.62882 32.4115 7.17861 32.2543 6.80098 31.9796C6.42336 31.7049 6.13508 31.325 5.97219 30.8874C5.80929 30.4498 5.77901 29.9739 5.88513 29.5192L7.88755 20.8296L1.19154 14.9782C0.837378 14.6728 0.581284 14.2696 0.45537 13.8191C0.329456 13.3687 0.339327 12.8912 0.483745 12.4463C0.628163 12.0015 0.9007 11.6092 1.26718 11.3187C1.63366 11.0281 2.07776 10.8522 2.5438 10.8131L11.3699 10.0486L14.8151 1.83112C14.995 1.39993 15.2985 1.03162 15.6873 0.772549C16.0761 0.513481 16.5329 0.375244 17.0001 0.375244C17.4673 0.375244 17.9241 0.513481 18.3129 0.772549C18.7017 1.03162 19.0052 1.39993 19.1851 1.83112L22.6408 10.0486L31.4639 10.8131C31.9299 10.8522 32.374 11.0281 32.7405 11.3187C33.107 11.6092 33.3795 12.0015 33.5239 12.4463C33.6684 12.8912 33.6782 13.3687 33.5523 13.8191C33.4264 14.2696 33.1703 14.6728 32.8161 14.9782H32.8087Z" fill="#F0B844"/>
</svg>
