<svg width="349" height="570" viewBox="0 0 349 570" fill="none" xmlns="http://www.w3.org/2000/svg">
<path d="M11.9526 23.5115C37.5316 -7.00316 84.4684 -7.00319 110.047 23.5115L120.221 35.6485C134.924 53.1889 157.875 61.5424 180.413 57.5567L196.009 54.7989C235.218 47.8651 271.173 78.0354 271.154 117.853L271.146 133.69C271.134 156.578 283.346 177.73 303.173 189.164L316.893 197.075C351.385 216.967 359.536 263.19 333.927 293.68L323.741 305.807C309.02 323.332 304.779 347.385 312.617 368.889L318.042 383.768C331.679 421.177 308.21 461.826 268.994 468.72L253.396 471.463C230.854 475.426 212.144 491.125 204.327 512.637L198.918 527.521C185.318 564.944 141.212 580.998 106.739 561.072L93.0276 553.146C73.2119 541.693 48.7881 541.693 28.9724 553.146L15.261 561.072C-19.212 580.998 -63.3181 564.944 -76.9179 527.521L-82.3271 512.637C-90.1445 491.125 -108.854 475.426 -131.396 471.463L-146.994 468.72C-186.21 461.826 -209.679 421.177 -196.042 383.768L-190.618 368.889C-182.779 347.385 -187.02 323.332 -201.741 305.807L-211.927 293.68C-237.536 263.19 -229.385 216.967 -194.893 197.075L-181.173 189.164C-161.346 177.73 -149.134 156.578 -149.146 133.69L-149.154 117.853C-149.173 78.0354 -113.218 47.8651 -74.0086 54.7989L-58.4135 57.5567C-35.8754 61.5424 -12.9245 53.1889 1.77878 35.6486L11.9526 23.5115Z" fill="#FFF7DD"/>
</svg>
