<svg width="17" height="16" viewBox="0 0 17 16" fill="none" xmlns="http://www.w3.org/2000/svg">
<path d="M11.4863 10.2927L11.0881 10.6891C11.0881 10.6891 10.1405 11.6306 7.5549 9.05986C4.96927 6.48911 5.9169 5.54761 5.9169 5.54761L6.16715 5.29736C6.78577 4.68311 6.8444 3.69611 6.30452 2.97511L5.20202 1.50248C4.53352 0.609982 3.2429 0.491857 2.47727 1.25311L1.10352 2.61811C0.724648 2.99611 0.470897 3.48436 0.501522 4.02686C0.580272 5.41548 1.20852 8.40186 4.71202 11.8861C8.42815 15.5804 11.915 15.7274 13.3404 15.5944C13.7919 15.5524 14.1839 15.3231 14.4998 15.0081L15.7423 13.7726C16.5823 12.9387 16.346 11.5081 15.2715 10.9245L13.6003 10.0154C12.895 9.63298 12.0375 9.74498 11.4863 10.2927Z" fill="white"/>
</svg>
