<svg width="48" height="49" viewBox="0 0 48 49" fill="none" xmlns="http://www.w3.org/2000/svg">
<rect y="0.500977" width="48" height="48" rx="24" fill="#F56938"/>
<path fill-rule="evenodd" clip-rule="evenodd" d="M25 18.501C25 17.9487 24.5523 17.501 24 17.501C23.4477 17.501 23 17.9487 23 18.501V22.501C23 23.0533 22.5523 23.501 22 23.501H18C17.4477 23.501 17 23.9487 17 24.501C17 25.0533 17.4477 25.501 18 25.501H22C22.5523 25.501 23 25.9487 23 26.501V30.501C23 31.0533 23.4477 31.501 24 31.501C24.5523 31.501 25 31.0533 25 30.501V26.501C25 25.9487 25.4477 25.501 26 25.501H30C30.5523 25.501 31 25.0533 31 24.501C31 23.9487 30.5523 23.501 30 23.501H26C25.4477 23.501 25 23.0533 25 22.501V18.501Z" fill="white"/>
</svg>
